<svg width="28" height="28" viewBox="0 0 28 28" fill="none" xmlns="http://www.w3.org/2000/svg">
<path fill-rule="evenodd" clip-rule="evenodd" d="M25.3145 15.3537C24.7911 14.892 24.1697 14.5347 23.4845 14.3151C24.7923 13.2228 25.688 11.6846 25.9325 9.95817C25.8581 9.99131 25.7831 10.023 25.7075 10.0533C25.6456 10.0781 25.5833 10.102 25.5207 10.1248C24.7061 10.4222 23.8309 10.5557 22.948 10.5085L22.9296 10.5074C21.3617 10.4191 19.8823 9.76685 18.7762 8.67612L18.7683 8.66841C17.7663 7.67681 17.1368 6.38845 16.9733 5.01255C16.9555 4.86264 16.9432 4.71169 16.9366 4.55997C16.9003 3.73109 17.0342 2.91114 17.3224 2.1457C14.7754 2.65796 12.7448 4.47226 11.9514 6.81117C11.2994 6.66669 10.6244 6.58146 9.93262 6.56156C11.0199 2.77577 14.5761 0 18.7953 0C19.7717 0 20.7126 0.14865 21.5956 0.424069C20.783 0.759268 20.0969 1.32884 19.6266 2.0458C19.6213 2.04522 19.616 2.04464 19.6108 2.04407C19.148 2.76749 18.9164 3.61494 18.9541 4.47651C18.9584 4.57401 18.966 4.67105 18.9771 4.76748C19.0849 5.70983 19.5128 6.59303 20.1967 7.27318L20.2045 7.2809C20.963 8.03151 21.98 8.47926 23.0574 8.53691L23.0759 8.53785C23.7248 8.56988 24.3673 8.45895 24.958 8.21941C25.3422 8.06362 25.7046 7.85342 26.0326 7.59276L26.034 7.5944C26.6398 7.11088 27.109 6.47078 27.3765 5.73752C27.779 6.74903 27.9999 7.8493 27.9999 9C27.9999 11.48 26.974 13.7258 25.3145 15.3537Z" fill="url(#paint0_linear_9_2030)"/>
<path fill-rule="evenodd" clip-rule="evenodd" d="M10.5 26L10.5534 25.9998V26H21L21 25.9999C23.6747 25.9999 26 23.7008 26 20.6666C26 17.6324 23.6747 15.3333 21 15.3333C20.2695 15.3333 19.5652 15.5047 18.9271 15.8158C18.8416 15.1268 18.6824 14.4624 18.4583 13.8316L18.4607 13.8307C17.2389 10.3871 14.0862 8 10.5 8C5.89224 8 2 11.9407 2 17C2 22.0593 5.89224 26 10.5 26ZM21 27.9999C24.866 27.9999 28 24.7167 28 20.6666C28 16.6165 24.866 13.3333 21 13.3333C20.8017 13.3333 20.6052 13.3419 20.4111 13.3588C18.9766 9.07315 15.0809 6 10.5 6C4.70101 6 0 10.9249 0 17C0 23.0751 4.70101 28 10.5 28C10.5094 28 10.5188 28 10.5283 28V28H21L21 27.9999Z" fill="url(#paint1_linear_9_2030)"/>
<defs>
<linearGradient id="paint0_linear_9_2030" x1="18.9663" y1="0" x2="18.9663" y2="15.3537" gradientUnits="userSpaceOnUse">
<stop stop-color="#F5BD52"/>
<stop offset="1" stop-color="#F5DA79"/>
</linearGradient>
<linearGradient id="paint1_linear_9_2030" x1="14" y1="6" x2="14" y2="28" gradientUnits="userSpaceOnUse">
<stop stop-color="#B2D4F7"/>
<stop offset="1" stop-color="#D9E2F3"/>
</linearGradient>
</defs>
</svg>
